<?xml version="1.0" encoding="utf-8"?>
<!-- Generator: Adobe Illustrator 24.1.0, SVG Export Plug-In . SVG Version: 6.00 Build 0)  -->
<svg version="1.1" id="Layer_1" xmlns="http://www.w3.org/2000/svg" xmlns:xlink="http://www.w3.org/1999/xlink" x="0px" y="0px"
	 viewBox="0 0 410 110" style="enable-background:new 0 0 410 110;" xml:space="preserve">
<style type="text/css">
	.st0{fill:#FFFFFF;}
</style>
<g>
	<path class="st0" d="M134,47.3c-12.3,0-18.6,5.7-18.6,17.1c0,12,6.3,18,18.6,18c3.7,0,7.1-0.6,10-1.7l0.5-0.2v-7.1l-1,0.4
		c-2.8,1.2-5.8,1.8-9,1.8c-7.6,0-11.3-3.7-11.3-11.3c0-7,3.7-10.3,11.3-10.3c3.2,0,6.3,0.6,9,1.8l1,0.4v-7.1L144,49
		C141.1,47.8,137.7,47.3,134,47.3z"/>
	<path class="st0" d="M161.5,54.4c-9.1,0-13.7,4.7-13.7,13.9c0,9.2,4.7,13.9,13.7,13.9c9.1,0,13.7-4.7,13.7-13.9
		C175.2,59,170.6,54.4,161.5,54.4z M161.5,75.7c-3.8,0-5.7-2.5-5.7-7.5c0-5,1.8-7.3,5.7-7.3c3.9,0,5.7,2.3,5.7,7.3
		C167.2,73.3,165.3,75.7,161.5,75.7z"/>
	<path class="st0" d="M193.9,54.4c-3,0-5.8,1.1-8.2,3.2l-0.7-3.2h-6.4v27.7h8V63.4c1.8-1.5,3.7-2.2,5.6-2.2c2.5,0,3.6,1.1,3.6,3.7
		v17.3h8V64.9C203.9,58,200.4,54.4,193.9,54.4z"/>
	<path class="st0" d="M224.8,54.4c-3,0-5.8,1.1-8.2,3.2l-0.7-3.2h-6.4v27.7h8V63.4c1.8-1.5,3.7-2.2,5.6-2.2c2.5,0,3.6,1.1,3.6,3.7
		v17.3h8V64.9C234.9,58,231.4,54.4,224.8,54.4z"/>
	<path class="st0" d="M251.3,54.4c-8.7,0-13.1,4.6-13.1,13.6c0,9.4,5.1,14.2,15,14.2c3.4,0,6.3-0.3,8.6-0.8l0.6-0.1v-6.7l-0.8,0.2
		c-2.6,0.5-5.2,0.7-7.8,0.7c-6.3,0-7.3-2.6-7.4-4.2h17.4l0.1-0.6c0.2-1.1,0.2-2.2,0.2-3.4C264,58.8,259.7,54.4,251.3,54.4z
		 M251.3,61c3.1,0,4.6,1.4,4.8,4.3h-9.7C246.8,62.4,248.4,61,251.3,61z"/>
	<polygon class="st0" points="285.5,54.4 279.7,62.2 273.9,54.4 264.8,54.4 275.1,68.3 264.8,82.2 273.9,82.2 279.7,74.4 
		285.5,82.2 294.6,82.2 284.3,68.3 294.6,54.4 	"/>
	<rect x="298.1" y="44.9" class="st0" width="8" height="6.7"/>
	<rect x="298.1" y="54.4" class="st0" width="8" height="27.7"/>
	<path class="st0" d="M323.6,54.4c-9.1,0-13.7,4.7-13.7,13.9c0,9.2,4.7,13.9,13.7,13.9c9.1,0,13.7-4.7,13.7-13.9
		C337.3,59,332.7,54.4,323.6,54.4z M323.6,75.7c-3.8,0-5.7-2.5-5.7-7.5c0-4.9,1.9-7.3,5.7-7.3c3.9,0,5.7,2.3,5.7,7.3
		C329.3,73.3,327.4,75.7,323.6,75.7z"/>
	<path class="st0" d="M356.3,54.4c-3,0-5.8,1.1-8.2,3.2l-0.7-3.2H341v27.7h8V63.4c1.8-1.5,3.7-2.2,5.6-2.2c2.5,0,3.6,1.1,3.6,3.7
		v17.3h8V64.9C366.3,58,362.8,54.4,356.3,54.4z"/>
	<g>
		<path class="st0" d="M152.6,49V35.3h3.7v5h5.5v-5h3.7V49h-3.7v-5.8h-5.5V49H152.6z"/>
		<path class="st0" d="M165.6,49.2h-3.9v-5.8h-5.3v5.8h-3.9v-14h3.9v5h5.3v-5h3.9V49.2z M161.9,48.9h3.4V35.4h-3.4v5h-5.7v-5h-3.5
			v13.5h3.5v-5.8h5.7V48.9z"/>
	</g>
	<g>
		<path class="st0" d="M168.1,49l6.4-13.7h3l6.4,13.7h-4l-0.9-2.1h-6.1l-0.9,2.1H168.1z M174,44.1h3.8l-1.8-4.4h-0.1L174,44.1z"/>
		<path class="st0" d="M184,49.2h-4.3l-0.9-2.1h-6l-0.9,2.1h-4.1l6.5-14h3.2l0,0.1L184,49.2z M179.9,48.9h3.8l-6.3-13.5h-2.9
			l-6.3,13.5h3.6l0.9-2.1h6.3L179.9,48.9z M177.9,44.2h-4.1l1.9-4.6h0.3l0,0.1L177.9,44.2z M174.2,44h3.4l-1.7-4.1L174.2,44z"/>
	</g>
	<g>
		<path class="st0" d="M186.8,49V35.3h7.6c2.1,0,3.4,0.6,4.3,1.5c0.7,0.8,1.2,1.8,1.2,2.9c0,1.7-1,3-2.5,3.8l3.2,5.5h-4.2l-2.6-4.8
			h-3.3V49H186.8z M190.5,38.3v2.9h4.2c0.9,0,1.6-0.5,1.6-1.5c0-0.4-0.1-0.8-0.4-1c-0.3-0.4-0.8-0.4-1.2-0.4H190.5z"/>
		<path class="st0" d="M200.7,49.2h-4.4l-2.6-4.8h-3.1v4.8h-3.9v-14h7.8c1.9,0,3.3,0.5,4.3,1.6c0.8,0.8,1.2,1.9,1.2,3
			c0,1.6-0.9,3-2.5,3.8L200.7,49.2z M196.5,48.9h3.9l-3.1-5.4l0.1-0.1c1.6-0.8,2.5-2.1,2.5-3.7c0-1.1-0.4-2-1.1-2.8
			c-1-1-2.3-1.5-4.2-1.5h-7.5v13.5h3.4v-4.8h3.4L196.5,48.9z M194.7,41.3h-4.3v-3.2h4.3c0.3,0,0.9,0,1.2,0.5
			c0.3,0.3,0.4,0.7,0.4,1.1C196.4,40.7,195.7,41.3,194.7,41.3z M190.6,41.1h4.1c0.9,0,1.4-0.5,1.4-1.4c0-0.4-0.1-0.7-0.4-1
			c-0.3-0.3-0.7-0.4-1.1-0.4h-4.1V41.1z"/>
	</g>
	<g>
		<path class="st0" d="M217.8,35.3L211.5,49h-3l-6.4-13.7h4.1l3.8,9.2h0.1l3.8-9.2H217.8z"/>
		<path class="st0" d="M211.5,49.2h-3.2l0-0.1l-6.4-13.9h4.4l0,0.1l3.7,9.1l3.8-9.1h4.2L211.5,49.2z M208.5,48.9h2.9l6.3-13.5h-3.7
			l-3.8,9.2h-0.3l0-0.1l-3.8-9.1h-3.8L208.5,48.9z"/>
	</g>
	<g>
		<path class="st0" d="M229.3,43.5h-4.8V46h8.5V49h-12.2V35.3h11.7v3.1h-8v2.2h4.8V43.5z"/>
		<path class="st0" d="M233.1,49.2h-12.4v-14h12v3.3h-8v1.9h4.8v3.2h-4.8v2.2h8.5V49.2z M220.9,48.9h12v-2.9h-8.5v-2.6h4.8v-2.7
			h-4.8v-2.4h8v-2.9h-11.5V48.9z"/>
	</g>
	<g>
		<path class="st0" d="M246.3,39.2c-0.9-0.5-2.6-1.3-4.6-1.3c-1.1,0-2.1,0.5-2.1,1.4c0,1,1.6,1.1,3.1,1.2c2.5,0.2,6.5,0.5,6.5,4.2
			c0,3.5-2.9,4.8-6.3,4.8c-3.5,0-5.9-1.3-7.6-2.5l2-2.5c0.9,0.7,3.1,2.2,5.6,2.2c1.7,0,2.7-0.7,2.7-1.6c0-1-1.2-1.2-2.9-1.3
			c-3.1-0.3-6.6-0.6-6.6-4.2c0-3.4,3.2-4.5,5.8-4.5c2.8,0,5.3,0.9,6.6,1.7L246.3,39.2z"/>
		<path class="st0" d="M242.9,49.6c-2.8,0-5.3-0.8-7.7-2.6l-0.1-0.1l2.1-2.7l0.1,0.1c0.7,0.5,3,2.1,5.5,2.1c1.5,0,2.6-0.6,2.6-1.5
			c0-0.8-0.9-1-2.8-1.2c-3-0.2-6.7-0.6-6.7-4.4c0-3.4,3.1-4.6,6-4.6c2.8,0,5.3,0.9,6.6,1.7l0.1,0.1l-2.1,2.7l-0.1-0.1
			c-0.9-0.5-2.6-1.3-4.6-1.3c-0.9,0-2,0.4-2,1.3c0,0.8,1.4,0.9,2.7,1.1l0.3,0c2.3,0.2,6.6,0.4,6.6,4.4
			C249.3,47.8,246.9,49.6,242.9,49.6z M235.4,46.9c2.3,1.6,4.7,2.4,7.4,2.4c1.9,0,6.2-0.5,6.2-4.7c0-3.4-3.3-3.9-6.4-4.1l-0.3,0
			c-1.4-0.1-2.9-0.3-2.9-1.3c0-0.9,0.9-1.5,2.2-1.5c2,0,3.7,0.8,4.6,1.3l1.9-2.4c-1.3-0.8-3.7-1.6-6.4-1.6c-2.8,0-5.7,1.1-5.7,4.4
			c0,3.6,3.5,3.9,6.5,4.1c1.8,0.1,3,0.3,3,1.4c0,1-1.2,1.8-2.8,1.8c-2.5,0-4.7-1.5-5.5-2.1L235.4,46.9z"/>
	</g>
	<g>
		<path class="st0" d="M251.3,35.3H264v3.1h-4.5V49h-3.7V38.4h-4.5V35.3z"/>
		<path class="st0" d="M259.6,49.2h-3.9V38.5h-4.5v-3.3h13v3.3h-4.5V49.2z M256,48.9h3.4V38.3h4.5v-2.9h-12.5v2.9h4.5V48.9z"/>
	</g>
	<g>
		<path class="st0" d="M82.2,28.4l-17.6-15c-0.7-0.6-1.6-0.6-2.3,0l-17.6,15c-1.2,1.1-0.5,3.1,1.1,3.1h8v29.7h19.1V31.5h8
			C82.7,31.5,83.5,29.5,82.2,28.4z"/>
		<path class="st0" d="M44.2,70.6l25.9,25.9c1.1,1.1,3,0.3,3-1.2V67.6H45.4C43.9,67.6,43.1,69.5,44.2,70.6z"/>
		<path class="st0" d="M106.9,63.2L82.4,38.7c-1.1-1.1-3-0.3-3,1.2v21.3h11.2c0.9,0,1.5,0.7,1.5,1.5v3.2c0,0.8-0.7,1.5-1.6,1.5H79.5
			v21.3c0,1.6,1.9,2.3,3,1.2l24.5-24.5C107.6,65,107.6,63.9,106.9,63.2z"/>
	</g>
</g>
</svg>
