<?xml version="1.0" encoding="utf-8"?>
<!-- Generator: Adobe Illustrator 23.0.4, SVG Export Plug-In . SVG Version: 6.00 Build 0)  -->
<svg version="1.1" id="Layer_1" xmlns="http://www.w3.org/2000/svg" xmlns:xlink="http://www.w3.org/1999/xlink" x="0px" y="0px"
	 viewBox="0 0 410 110" style="enable-background:new 0 0 410 110;" xml:space="preserve">
<style type="text/css">
	.st0{fill:#FFFFFF;}
</style>
<g>
	<g>
		<path class="st0" d="M224.1,55.6c-1.4,3.1-2.5,5.7-3.7,8.3c-0.4,0.8-1.2,1.8-1.9,1.8c-0.6,0-1.5-1-1.9-1.7
			c-2.9-6.3-5.6-12.6-8.4-18.9c-0.5-1.1-0.5-2.1,0.7-2.4c0.6-0.1,1.7,0.6,2,1.2c2.3,4.9,4.4,9.8,6.5,14.7c0.3,0.6,0.6,1.2,1.1,2.3
			c1.4-3.1,2.6-5.8,3.6-8.5c0.2-0.5-0.1-1.4-0.3-2c-0.7-1.8-1.7-3.5-2.3-5.4c-0.2-0.6,0.4-1.5,0.6-2.3c0.7,0.4,1.6,0.7,2,1.3
			c0.7,1.1,1.1,2.3,1.9,4c0.8-1.7,1.2-3,2-4.1c0.4-0.6,1.2-0.8,1.8-1.2c0.3,0.8,0.9,1.6,0.7,2.2c-0.6,1.9-1.6,3.7-2.2,5.6
			c-0.3,0.8-0.3,1.9,0,2.7c0.9,2.4,2,4.7,3.2,7.6c0.6-1.2,1-1.8,1.3-2.5c2.1-4.7,4.2-9.4,6.2-14.1c0.4-1,0.9-2.1,2.2-1.5
			c1.3,0.6,1,1.6,0.5,2.7c-2.8,6.2-5.4,12.5-8.3,18.7c-0.3,0.7-1.2,1.6-2,1.7c-0.5,0.1-1.4-1-1.7-1.7
			C226.7,61.4,225.5,58.7,224.1,55.6z"/>
		<path class="st0" d="M345.7,63.4c0,3,0,5.9,0,8.8c0,1.1,0,2.5-1.4,2.3c-0.7-0.1-1.7-1.5-1.7-2.3c-0.1-9.1-0.1-18.2,0-27.4
			c0-0.8,0.9-1.6,1.4-2.4c0.7,0.5,1.4,1.1,2.3,1.8c6.5-3.4,11.6-2.9,15.5,2c3.9,4.9,3.6,12.1-0.6,16.9
			C357.4,67.2,352.3,67.4,345.7,63.4z M361.4,54.5c0.1-2.9-0.9-5.1-2.7-6.9c-2.5-2.6-5.3-3.3-8.3-2c-2.7,1.2-5.2,3-4.7,7.2
			c0.1,1-0.2,2.1,0.1,3.1c0.3,1.4,0.6,2.9,1.5,3.9c2.3,3,5.6,3.9,8.7,2.8C359.1,61.6,361.4,58.1,361.4,54.5z"/>
		<path class="st0" d="M385.8,55.7c1.6,5.9,5.7,8.6,10.4,7c1.5-0.5,2.8-1.8,3.9-2.9c0.7-0.7,1.1-1.5,2.2-0.8
			c1.1,0.7,1.1,1.6,0.5,2.7c-2.1,3.8-8.2,5.8-12.7,4.1c-4.5-1.7-8-7.1-7.8-11.8c0.3-5.8,3.6-10.3,8.5-11.7
			c6.9-1.9,14.2,3.8,14.1,11.1c0,1.9-0.9,2.5-2.6,2.5c-4.8,0-9.6,0-14.4,0C387.4,55.7,386.7,55.7,385.8,55.7z M401.4,52.3
			c-0.3-4.2-3.8-7.3-8-7.3c-3.8,0-7.1,3.2-7.3,7.3C391.2,52.3,396.3,52.3,401.4,52.3z"/>
		<path class="st0" d="M179.5,55.5c-2.5,0-5,0-7.5,0c-2,0-2.2,0.4-1.4,2.3c2.8,6.5,9.9,7.5,14.3,1.9c0.3-0.4,1.4-0.7,1.6-0.5
			c0.5,0.4,1,1.3,0.9,1.8c-0.2,0.7-0.8,1.5-1.3,2.1c-3.1,3-6.8,4.1-10.9,2.7c-4.5-1.5-7.1-4.9-7.9-9.4c-1-5.4,1.6-10.9,6-13.2
			c3.6-1.9,7.3-1.6,10.7,0.6c3.5,2.3,5.1,5.8,5.4,9.9c0.1,1.5-0.9,1.9-2.2,1.9C184.5,55.5,182,55.5,179.5,55.5
			C179.5,55.5,179.5,55.5,179.5,55.5z M186,52.8c-0.7-4.7-3.4-7.4-7.2-7.8c-3.7-0.4-6.8,1.6-8.3,5.3c-0.8,2.1-0.6,2.5,1.6,2.5
			c1.7,0,3.5,0,5.2,0C180.2,52.8,183,52.8,186,52.8z"/>
		<path class="st0" d="M263.7,45.1c2.7-2.2,5.2-3.3,8.3-3.2c3,0.1,5.3,1.5,6.3,4.3c0.7,1.9,1.1,3.9,1.2,5.9
			c0.2,3.7,0.1,7.5,0.1,11.3c0,0.3,0.1,0.8-0.1,1c-0.5,0.6-1.2,1-1.7,1.5c-0.4-0.6-1.1-1.1-1.2-1.7c-0.2-1.4,0-2.9-0.1-4.4
			c-0.1-3.3-0.1-6.5-0.4-9.8c-0.3-4.3-3.4-6.1-7.4-4.4c-3.1,1.3-5,4.2-5,7.5c0,3.3,0,6.7,0,10c0,0.7-0.1,1.4-0.5,2
			c-0.2,0.4-1,0.8-1.4,0.7c-0.5-0.1-0.9-0.7-1.2-1.2c-0.2-0.4-0.1-1-0.1-1.4c0-8.9,0-17.8,0-26.7c0-0.3-0.1-0.6,0-0.8
			c0.4-0.7,0.9-1.3,1.4-1.9c0.5,0.6,1.5,1.2,1.6,1.9c0.2,2.1,0.1,4.2,0.1,6.3C263.7,42.7,263.7,43.7,263.7,45.1z"/>
		<path class="st0" d="M321.8,54.2c0,6.6-5.1,12.1-11.3,12.1c-6.1,0-11.4-5.7-11.4-12.3c0-6.7,5.2-12.2,11.4-12.2
			C316.8,41.9,321.8,47.5,321.8,54.2z M318.6,54.2c0-4.9-3.8-9.2-8.2-9.1c-4.1,0-8.3,4.3-8.1,8.8c0.2,5.8,3.9,9.3,8.2,9.4
			C314.8,63.2,318.6,58.9,318.6,54.2z"/>
		<path class="st0" d="M131.2,44.5c1.7-0.7,3.6-1.8,5.6-2.3c5.3-1.2,9,1.5,9.3,6.9c0.3,4.6,0.3,9.3,0.4,14c0,1.2-0.1,2.5-1.5,2.5
			c-1.5,0-1.5-1.3-1.5-2.5c-0.1-4.7,0.1-9.3-0.3-14c-0.3-3.8-2.9-5.1-6.6-3.9c-3.7,1.2-5.9,4.2-5.9,8.2c0,3.1,0,6.1,0,9.2
			c0,1.2,0.3,2.9-1.5,3c-1.8,0.1-1.5-1.6-1.5-2.8c0-5.8,0-11.6,0-17.3c0-1.1-0.3-2.7,1.3-2.8C129.8,42.6,130.5,43.9,131.2,44.5z"/>
		<path class="st0" d="M283,82.5c1,1.7,2,3.3,3,4.9c-0.2,0.2-0.4,0.3-0.5,0.5c-0.5-0.3-1-0.6-1.4-1.1c-0.7-0.9-1.2-2.1-2-2.9
			c-0.6-0.6-1.5-1.3-2.3-1.4c-2.9-0.3-3-0.1-3.1,2.8c0,0.8-0.1,1.5-0.2,2.3c-0.2,0-0.4,0.1-0.7,0.1c-0.2-0.5-0.6-1.1-0.6-1.6
			c0-3.8,0-7.7,0-11.5c0-1.3,0.5-1.9,1.9-1.9c1.3,0.1,2.5,0,3.8,0c2.5,0.1,4.2,1.2,4.9,3.2c0.7,2.1,0.1,4.1-1.7,5.6
			C283.7,81.9,283.4,82.2,283,82.5z M276.7,77.7c0,3.4,0,3.4,2.6,3.4c3.7,0,5.3-1.1,5.2-3.5c-0.1-2.2-1.6-3.3-4.8-3.3
			C276.7,74.3,276.7,74.3,276.7,77.7z"/>
		<path class="st0" d="M236.5,73c0.3,4.9,0.4,9.8-0.4,14.8c-1.5-2-0.5-4.4-1.1-6.7c-2.5,0-4.9-0.1-7.4,0.1c-0.4,0-1,1-1.1,1.6
			c-0.1,1.7-0.1,3.4-0.1,5.4c-1.8-1.3-1.9-13.5-0.1-15c0,1.4,0.2,2.9,0.1,4.3c-0.1,1.8,0.6,2.3,2.3,2.2c2.1-0.1,4.1,0,6.3,0
			c0.1-2.4,0.2-4.5,0.4-6.6C235.8,73,236.2,73,236.5,73z"/>
		<path class="st0" d="M325.2,73c0.1,2.1,0.2,4.1,0.4,6.5c2.5,0,5.1,0.1,7.6-0.1c0.4,0,0.8-1.1,0.9-1.7c0.2-1.6,0.2-3.2,0.3-5.3
			c1.6,2,1.6,13.8-0.1,15.3c0-1.4-0.2-2.7-0.1-4.1c0.2-2.1-0.4-3-2.6-2.7c-1.4,0.2-2.8,0.1-4.2,0c-1.5-0.1-2,0.5-1.9,1.9
			c0.1,1,0.1,2.1,0,3.1c0,0.6-0.3,1.2-0.5,1.7c-0.2,0-0.4-0.1-0.6-0.1c0-4.9,0-9.7,0-14.6C324.6,73.1,324.9,73,325.2,73z"/>
		<path class="st0" d="M311,76.6c-5-2.9-7.3-3.1-9.6-0.6c-2.2,2.4-2.2,6.1,0,8.6c2.4,2.8,4.5,2.6,9.9-0.6c-0.2,0.6-0.3,1.4-0.7,1.9
			c-1.5,1.9-4.6,2.7-7,1.9c-3.6-1.2-5.7-5.1-4.9-9c0.8-3.9,4-6.4,7.9-5.8c1.4,0.3,2.8,1.4,4,2.3C310.8,75.4,310.8,76.1,311,76.6z"/>
		<path class="st0" d="M201,79.9c0,3.1,1.5,5.4,3.7,6.3c2.5,1,4.5,0.1,6.2-1.6c0.3-0.3,0.9-0.4,1.3-0.6c-0.1,0.5,0,1.2-0.3,1.6
			c-2,2.9-6.6,3.3-9.5,0.9c-2.7-2.2-3.6-6-2.3-9.3c1.3-3.2,4.1-5,7.4-4.4c1.5,0.3,2.8,1.5,4.2,2.4c0.2,0.2,0.2,0.8,0.2,1.3
			c-0.4-0.2-1-0.2-1.3-0.5c-2-1.9-4.2-2.5-6.2-1.5C202.1,75.8,201.1,77.9,201,79.9z"/>
		<path class="st0" d="M261.8,73c0.2,0.4,0.6,0.8,0.5,1.2c-0.1,3,0,6.1-0.4,9.1c-0.4,3.2-2.6,4.8-5.6,4.8c-3.5,0-5.7-1.3-6.2-4.6
			c-0.5-3.1-0.3-6.4-0.4-9.5c0-0.3,0.4-0.7,0.9-1.6c0.3,1.2,0.5,1.9,0.5,2.6c0.1,2.2-0.1,4.3,0,6.5c0.2,4,2.8,6.1,6.2,5.2
			c1.7-0.5,2.8-1.7,3-3.3c0.3-2.6,0.3-5.3,0.4-7.9c0-0.8,0.2-1.6,0.2-2.3C261.4,73.1,261.6,73,261.8,73z"/>
	</g>
	<g>
		<path class="st0" d="M26.7,87.5c-0.1-1.3-0.4-2.6-0.2-3.8c0.6-5,2-9.7,4.2-14.2c2.5-5.3,4.9-10.6,7.1-16c1.2-3.1,0.3-6-1.8-8.6
			c-0.6-0.7-1.2-1.3-1.8-1.9c-1.9-1.8-3.5-1.5-4.3,0.9C27,52.3,24,60.9,21.5,69.5c-1.7,5.8-2.2,11.8-1.9,17.8c0,0.3,0,0.7-0.1,1
			c-0.2,0.1-0.4,0.2-0.5,0.3c-1.8-2.2-3.7-4.4-5.5-6.7c-3.1-4-5.3-8.4-6.6-13.3c-0.7-2.4-1.3-4.8-1.5-7.3C5.2,56.7,4.7,52,5.2,47.3
			c0.4-3.6,2-7.1,3.3-10.6c1.1-2.9,2.4-5.9,4-8.5c1.6-2.4,3.6-4.6,5.7-6.7c2.4-2.4,5.1-4.6,7.8-6.9c1-0.9,2.2-1.5,3.4-2.1
			c4.5-2.3,9.2-4.4,14.2-5.1c2.9-0.4,5.8-1.5,9-0.7c1.7,0.4,3.6-0.2,5.4,0c2.5,0.3,5.1,0.9,7.5,1.6c2.8,0.8,5.6,2,8.4,2.9
			c2.3,0.8,3.1,2,2.5,4.4c-1.5,5.6-3.1,11.2-4.8,16.8c-1.5,5.2-3.1,10.4-4.6,15.6C65.6,53.5,64.3,59,63,64.4
			c-0.9,3.9-1.6,7.8-2.4,11.6c-0.7,3.4-5,7.4-8.5,7.7c-0.7,0.1-1.9-1.1-2.3-1.9c-0.5-0.9-0.5-2.2-0.4-3.3c0.3-2.7,0.8-5.4,1.4-8
			c0.3-1.4,0.9-2.8,1.5-4.2c1.6-3.7,3.3-7.4,4.9-11.1c1.1-2.6,2.3-5.1,3.2-7.7c1-3.1-1.9-8.4-4.9-9.5c-1.5-0.5-2.5,0-3,1.5
			c-0.6,1.7-1,3.5-1.8,5c-0.6,1.1-1.9,1.8-2.6,2.8c-4.4,6.2-8.1,12.9-11.3,19.8c-3,6.4-5.9,12.8-8.8,19.2c-0.2,0.4-0.5,0.8-0.7,1.2
			C27.1,87.5,26.9,87.5,26.7,87.5z"/>
		<path class="st0" d="M101.8,79.8c0.1,2.3,0.3,4.5,0.4,6.8c0.1,3.1,0.2,6.1,0.3,9.2c0.1,1.7,0.1,3.4,0.3,5.2
			c0.1,1.3-0.7,1.5-1.6,1.5c-3.7,0-7.5-0.2-11.2-0.1c-6.3,0.2-12.6,0.6-19,0.9c-3.4,0.1-6.9,0.4-10.3,0.2c-4.9-0.2-9.9-0.6-14.8-1.1
			c-4.8-0.5-9.2-2.3-13.6-4.2c-1.1-0.4-1.9-1.4-2.6-1.9c4.1-12.8,9.2-25,14.7-37.1c0.2,0.1,0.3,0.1,0.5,0.2
			c-0.6,2.2-1.2,4.5-1.7,6.7c-0.3,1.3-0.3,2.6-0.5,3.9c-0.4,4.3-0.5,8.7,0.8,12.9c0.7,2.5,2.3,4.3,4.3,5.7c1.9,1.3,5,1,6.8-0.5
			c1.3-1,2.6-2.1,4.2-3.3c0.1,1.5,0.1,3.1,0.2,4.8c0.1,2.2-0.1,4.4,0.5,6.4c0.9,2.9,2.8,4.7,5.6,4c2-0.5,3.5-1.8,4.2-3.8
			c1.3-3.8,2.3-7.7,3.7-11.4c1.6-4.2,3.5-8.2,5.3-12.3c0.6-1.5,1.1-3,1.7-4.5c0.2-0.5,0.6-1,0.8-1.5c0.2,0.1,0.3,0.1,0.5,0.2
			c-0.2,1.7-0.6,3.3-0.7,5c-0.4,4.8-0.1,9.5,1.9,13.9c1.3,2.8,3.1,5.4,6.9,5.5c2.6,0.1,6.6-2.3,7.7-4.7c0.1-0.3,0.3-0.6,0.4-0.9
			c0.8-1.4,1.6-2.8,2.5-4.2c0.4-0.7,0.9-1.3,1.4-2C101.5,79.5,101.6,79.6,101.8,79.8z"/>
		<path class="st0" d="M65.6,89.3c0-1.5-0.2-3,0-4.5c0.3-2.4,0.7-4.8,1.4-7.1c0.9-3.2,2-6.4,3-9.6c1.3-3.9,2.5-7.9,3.9-11.8
			c2.1-6,4.3-11.9,6.5-17.8c2-5.5,4-11,6-16.4c0.1-0.2,0.2-0.4,0.7-1.1c1.8,2.3,3.7,4.2,5.2,6.4c1.8,2.7,3.4,5.6,4.8,8.6
			c0.8,1.6,0.9,3.6,1.7,5.3c0.9,1.9,1.1,3.8,1.3,5.7c0.4,3.6,1,7.2,1.3,10.9c0.3,3.8,0.5,7.7,0.5,11.6c0,2.8-1.2,5.4-1.9,8
			c-0.8,3.3-3.2,4.9-5.1,7c-0.5,0.5-1.2,1-1.9,1.2c-3.5,0.9-4.4,0.1-4.9-3.5c-0.6-3.9,0.2-7.5,1.6-11.1c1.6-4,3-8.1,4.7-12.1
			c0.9-2,2.1-3.8,2.3-6c0.2-1.8,0.1-3.3-1.1-4.7C94.8,47,94,45.8,93,44.8c-0.9-0.9-1.9-1.7-3,0.1c-1.8,2.9-3.7,5.7-5.4,8.6
			c-1.2,2-2.3,4.1-3.5,6.1c-1.9,3.4-3.7,6.7-5.5,10.2c-2.2,4.2-4.3,8.4-6.3,12.7c-1.1,2.3-2.1,4.7-3.2,7
			C65.9,89.4,65.8,89.4,65.6,89.3z"/>
	</g>
</g>
</svg>
