<?xml version="1.0" encoding="utf-8"?>
<!-- Generator: Adobe Illustrator 23.0.6, SVG Export Plug-In . SVG Version: 6.00 Build 0)  -->
<svg version="1.1" id="Layer_1" xmlns="http://www.w3.org/2000/svg" xmlns:xlink="http://www.w3.org/1999/xlink" x="0px" y="0px"
	 viewBox="0 0 425 90" style="enable-background:new 0 0 425 90;" xml:space="preserve">
<style type="text/css">
	.st0{fill:#FFFFFF;}
</style>
<g>
	<polygon class="st0" points="69.8,34.8 84.1,34.8 84.1,39.6 75.6,39.6 75.6,44.6 83.6,44.6 83.6,49.3 75.6,49.3 75.6,59.7 
		69.8,59.7 	"/>
	<rect x="86.6" y="34.9" class="st0" width="5.8" height="24.9"/>
	<g>
		<path class="st0" d="M102,45.3h1.8c2.4,0,3-1.8,3-3.2c0-1.9-0.7-3.1-3-3.1H102V45.3z M96.2,34.8h9.8c5,0,6.7,3.1,6.7,6.5
			c0,3.6-1.5,5.4-4.2,6.1v0.1c3.7,0.5,3.9,2.9,4,6.2c0.1,4.9,0.3,5.4,1.1,5.7v0.3h-6.3c-0.5-0.8-0.6-2.2-0.6-5
			c0-4.3-0.6-5.2-2.4-5.2H102v10.3h-5.8V34.8z"/>
		<path class="st0" d="M121,52.1V53c0,1.9,0.5,3.3,2.5,3.3c2.1,0,2.6-1.5,2.6-3c0-5.4-10.7-2.4-10.7-11.7c0-4,2.1-7.3,8.1-7.3
			c5.9,0,7.9,3,7.9,6.8v0.6h-5.6c0-1.2-0.1-2.1-0.5-2.6c-0.3-0.6-0.9-0.9-1.8-0.9c-1.5,0-2.3,0.9-2.3,2.7c0,5.2,10.7,2.6,10.7,11.3
			c0,5.6-3.1,7.9-8.5,7.9c-4.2,0-8.2-1.3-8.2-6.5v-1.6H121z"/>
	</g>
	<polygon class="st0" points="138.5,39.6 133.2,39.6 133.2,34.9 149.5,34.9 149.5,39.6 144.3,39.6 144.3,59.7 138.5,59.7 	"/>
	<g>
		<path class="st0" d="M166.4,55.4h1.8c2.4,0,3.2-1.5,3.2-3.2c0-2.4-1.3-3.5-3.1-3.5h-1.9V55.4z M166.4,44.8h1.6
			c2,0,2.9-1.2,2.9-2.9c0-1.3-0.7-2.7-2.8-2.7h-1.6V44.8z M160.6,34.8h9.1c4.2,0,7.1,2,7.1,6.1c0,2.9-1.5,5.2-3.9,5.6v0.1
			c1.8,0.3,4.6,1.1,4.6,6.2c0,2.9-1.3,6.9-8.2,6.9h-8.6V34.8z"/>
	</g>
	<path class="st0" d="M188.7,39.4L188.7,39.4l-2.1,11.1h4.2L188.7,39.4z M185.2,34.8h7.3l6.2,24.9h-6.1l-0.9-4.7h-6l-0.9,4.7h-6.1
		L185.2,34.8z"/>
	<g>
		<path class="st0" d="M206.4,45.7h1.6c2.3,0,2.9-1.5,2.9-3.1c0-1.9-0.6-3.4-3-3.4h-1.5V45.7z M200.5,34.8h9.1
			c6.2,0,7.3,4.5,7.3,7.6c0,4.5-2.1,7.6-8,7.6h-2.6v9.7h-5.8V34.8z"/>
	</g>
	<polygon class="st0" points="223.5,39.6 218.3,39.6 218.3,34.9 234.6,34.9 234.6,39.6 229.4,39.6 229.4,59.7 223.5,59.7 	"/>
	<rect x="236.7" y="34.9" class="st0" width="5.8" height="24.9"/>
	<g>
		<path class="st0" d="M251.1,52.1V53c0,1.9,0.5,3.3,2.5,3.3c2.1,0,2.6-1.5,2.6-3c0-5.4-10.7-2.4-10.7-11.7c0-4,2.1-7.3,8.1-7.3
			c5.9,0,7.9,3,7.9,6.8v0.6h-5.6c0-1.2-0.1-2.1-0.5-2.6c-0.3-0.6-0.9-0.9-1.8-0.9c-1.5,0-2.3,0.9-2.3,2.7c0,5.2,10.7,2.6,10.7,11.3
			c0,5.6-3.1,7.9-8.5,7.9c-4.2,0-8.2-1.3-8.2-6.5v-1.6H251.1z"/>
	</g>
	<polygon class="st0" points="268.6,39.6 263.4,39.6 263.4,34.9 279.7,34.9 279.7,39.6 274.4,39.6 274.4,59.7 268.6,59.7 	"/>
	<g>
		<path class="st0" d="M301.1,43.5c0-3.6-0.4-5.2-2.4-5.2c-2.3,0-2.5,2.2-2.5,8.7c0,7.4,0.2,9.3,2.7,9.3c2.2,0,2.4-2.5,2.4-6.3h5.6
			v0.9c0,5.4-1.5,9.4-8.7,9.4c-7.5,0-8.1-5.6-8.1-13.1c0-6.4,0.3-12.7,8.6-12.7c5.2,0,8,2.2,8,8.1v1H301.1z"/>
	</g>
	<polygon class="st0" points="309.4,34.8 315.2,34.8 315.2,44.1 319.9,44.1 319.9,34.8 325.8,34.8 325.8,59.7 319.9,59.7 
		319.9,49.1 315.2,49.1 315.2,59.7 309.4,59.7 	"/>
	<g>
		<path class="st0" d="M345.4,51.5c0,4.9-1.4,8.7-8.2,8.7c-6.8,0-8.2-3.8-8.2-8.7V34.8h5.8v18.3c0,1.9,0.8,3.1,2.3,3.1
			c1.6,0,2.3-1.1,2.3-3.1V34.8h5.8V51.5z"/>
		<path class="st0" d="M354.6,45.3h1.8c2.4,0,3-1.8,3-3.2c0-1.9-0.7-3.1-3-3.1h-1.8V45.3z M348.7,34.8h9.8c5,0,6.7,3.1,6.7,6.5
			c0,3.6-1.5,5.4-4.2,6.1v0.1c3.7,0.5,3.9,2.9,4,6.2c0.1,4.9,0.3,5.4,1.1,5.7v0.3h-6.3c-0.5-0.8-0.6-2.2-0.6-5
			c0-4.3-0.6-5.2-2.4-5.2h-2.2v10.3h-5.8V34.8z"/>
		<path class="st0" d="M379.1,43.5c0-3.6-0.4-5.2-2.4-5.2c-2.3,0-2.5,2.2-2.5,8.7c0,7.4,0.2,9.3,2.7,9.3c2.2,0,2.4-2.5,2.4-6.3h5.6
			v0.9c0,5.4-1.5,9.4-8.7,9.4c-7.5,0-8.1-5.6-8.1-13.1c0-6.4,0.3-12.7,8.6-12.7c5.2,0,8,2.2,8,8.1v1H379.1z"/>
	</g>
	<polygon class="st0" points="397.9,34.8 397.9,44.1 393.2,44.1 393.2,34.8 387.4,34.8 387.4,59.7 393.2,59.7 393.2,49.1 
		397.9,49.1 397.9,59.7 403.8,59.7 403.8,34.8 	"/>
	<g>
		<g>
			<path class="st0" d="M21.5,66.3c3.3-2,9.4-5.5,9.4-9.9c0-0.1,0-16,0-16s-5.3,3.4-6.9,4.6c-1.8,1.3-2.4,2.8-2.4,4.6V66.3z"/>
			<path class="st0" d="M57.9,81.7l-6.7-4.2c-1.7-1.1-3-3.2-3-5.2l0.2-21.4l6.8,4.4c1.7,1.1,2.7,3,2.7,5.1V81.7z"/>
			<g>
				<g>
					<path class="st0" d="M45.6,44.9l8.2,5.1v-6.5c0-2.4-1.2-4.6-3.2-5.8l-8.5-5.4l-0.5,30.4l3.6,2.5L45.6,44.9z"/>
				</g>
			</g>
		</g>
		<polygon class="st0" points="35.1,8.3 34.6,21.6 21.2,22.3 21.2,25.7 34.6,26.4 35.2,69 38.3,66 38.9,26.4 52.3,25.7 52.3,22.3 
			38.9,21.6 38.4,8.3 		"/>
	</g>
</g>
<title>Artboard 1</title>
</svg>
