<?xml version="1.0" encoding="utf-8"?>
<!-- Generator: Adobe Illustrator 21.1.0, SVG Export Plug-In . SVG Version: 6.00 Build 0)  -->
<svg version="1.1" id="Layer_1" xmlns="http://www.w3.org/2000/svg" xmlns:xlink="http://www.w3.org/1999/xlink" x="0px" y="0px"
	 viewBox="0 0 320 72" style="enable-background:new 0 0 320 72;" xml:space="preserve">
<style type="text/css">
	.st0{fill:#FFFFFF;}
</style>
<g>
	<g>
		<path class="st0" d="M66.2,27H75v3.1h-5.5v4.1h4.8v3.1h-4.8v7h-3.3V27z"/>
		<path class="st0" d="M77.7,27H81v17.2h-3.3V27z"/>
		<path class="st0" d="M84.3,27h4.9c1.8,0,3.3,0.5,4.3,1.5c0.9,0.9,1.4,2.3,1.4,4v0.1c0,2.5-1.1,4-2.6,4.8l3,6.6h-3.7L89,38.3h-1.4
			v5.8h-3.3V27z M88.9,35.4c1.8,0,2.7-1.1,2.7-2.7c0-1.8-1-2.7-2.8-2.7h-1.2v5.4H88.9z"/>
		<path class="st0" d="M96.3,42l2-2.5c0.7,0.7,1.8,1.8,3.3,1.8c1.2,0,1.9-0.8,1.9-1.8c0-0.8-0.4-1.3-2.3-2.5
			c-2.6-1.5-4.1-2.9-4.1-5.3v0c0-2.9,2.1-4.9,5.2-4.9c1.5,0,3.3,0.5,4.6,2l-2,2.5c-0.6-0.7-1.6-1.5-2.8-1.5c-1,0-1.7,0.6-1.7,1.5
			c0,0.8,0.4,1.4,2.8,2.9c2.4,1.5,3.7,2.8,3.7,5.1v0c0,2.9-2.3,5-5.2,5C99.9,44.3,98,43.7,96.3,42z"/>
		<path class="st0" d="M111.3,30.1h-3.3V27h9.8v3.1h-3.3v14.1h-3.3V30.1z"/>
		<path class="st0" d="M125.5,27h4.6c1.8,0,3.5,0.5,4.5,1.5c0.8,0.8,1.2,1.7,1.2,2.9v0.1c0,2.1-1.2,3.2-2.4,3.8
			c1.6,0.7,2.9,1.7,2.9,4v0.2c0,3.1-2.4,4.7-6,4.7h-4.7V27z M132.5,32c0-1.3-0.9-2-2.3-2h-1.4v4.1h1.3
			C131.5,34.1,132.5,33.3,132.5,32L132.5,32z M130.4,36.9h-1.7v4.3h1.7c1.5,0,2.5-0.8,2.5-2.1v0C132.9,37.7,132,36.9,130.4,36.9z"/>
		<path class="st0" d="M142.3,26.9h3.3l4.8,17.2h-3.4l-0.9-3.6h-4.4l-0.9,3.6h-3.2L142.3,26.9z M145.4,37.7L144,32l-1.4,5.6H145.4z"
			/>
		<path class="st0" d="M152.6,27h4.3c3.6,0,5.9,2,5.9,5.8v0c0,3.9-2.5,5.8-5.8,6h-1.1v5.3h-3.3V27z M156.7,35.9
			c1.8,0,2.7-1.2,2.7-2.9c0-1.9-0.9-2.9-2.7-2.9h-0.9v5.9H156.7z"/>
		<path class="st0" d="M167.5,30.1h-3.3V27h9.8v3.1h-3.3v14.1h-3.3V30.1z"/>
		<path class="st0" d="M176.6,27h3.3v17.2h-3.3V27z"/>
		<path class="st0" d="M181.9,42l2-2.5c0.7,0.7,1.8,1.8,3.3,1.8c1.2,0,1.9-0.8,1.9-1.8c0-0.8-0.4-1.3-2.3-2.5
			c-2.6-1.5-4.1-2.9-4.1-5.3v0c0-2.9,2.1-4.9,5.2-4.9c1.5,0,3.3,0.5,4.6,2l-2,2.5c-0.6-0.7-1.6-1.5-2.8-1.5c-1,0-1.7,0.6-1.7,1.5
			c0,0.8,0.4,1.4,2.8,2.9c2.4,1.5,3.7,2.8,3.7,5.1v0c0,2.9-2.3,5-5.2,5C185.5,44.3,183.6,43.7,181.9,42z"/>
		<path class="st0" d="M196.9,30.1h-3.3V27h9.8v3.1h-3.3v14.1h-3.3V30.1z"/>
		<path class="st0" d="M211.1,27h4.6c1.8,0,3.5,0.5,4.5,1.5c0.8,0.8,1.2,1.7,1.2,2.9v0.1c0,2.1-1.2,3.2-2.4,3.8
			c1.6,0.7,2.9,1.7,2.9,4v0.2c0,3.1-2.4,4.7-6,4.7h-4.7V27z M218,32c0-1.3-0.9-2-2.3-2h-1.4v4.1h1.3C217.1,34.1,218,33.3,218,32
			L218,32z M216,36.9h-1.7v4.3h1.7c1.5,0,2.5-0.8,2.5-2.1v0C218.5,37.7,217.5,36.9,216,36.9z"/>
		<path class="st0" d="M224.2,38.3V27h3.3v11.4c0,2,0.9,2.9,2.2,2.9s2.2-0.9,2.2-2.9V27h3.3v11.3c0,4.2-2.2,6.2-5.5,6.2
			C226.4,44.4,224.2,42.4,224.2,38.3z"/>
		<path class="st0" d="M238.2,27h4.9c1.8,0,3.3,0.5,4.3,1.5c0.9,0.9,1.4,2.3,1.4,4v0.1c0,2.5-1.1,4-2.6,4.8l3,6.6h-3.7l-2.6-5.8
			h-1.4v5.8h-3.3V27z M242.8,35.4c1.8,0,2.7-1.1,2.7-2.7c0-1.8-1-2.7-2.8-2.7h-1.2v5.4H242.8z"/>
		<path class="st0" d="M251.5,27h3.3v14.1h5.1v3.1h-8.4V27z"/>
		<path class="st0" d="M262.4,27h8.9v3h-5.7v4h5v3h-5v4.1h5.8v3h-9V27z"/>
		<path class="st0" d="M272.9,42l2-2.5c0.7,0.7,1.8,1.8,3.3,1.8c1.2,0,1.9-0.8,1.9-1.8c0-0.8-0.4-1.3-2.3-2.5
			c-2.6-1.5-4.1-2.9-4.1-5.3v0c0-2.9,2.1-4.9,5.2-4.9c1.5,0,3.3,0.5,4.6,2l-2,2.5c-0.6-0.7-1.6-1.5-2.8-1.5c-1,0-1.7,0.6-1.7,1.5
			c0,0.8,0.4,1.4,2.8,2.9c2.4,1.5,3.7,2.8,3.7,5.1v0c0,2.9-2.3,5-5.2,5C276.5,44.3,274.6,43.7,272.9,42z"/>
		<path class="st0" d="M285.3,35.9v-0.6c0-5.4,2.5-8.6,6.3-8.6c3.7,0,6.2,3.2,6.2,8.6v0.6c0,5.4-2.5,8.6-6.3,8.6
			C287.8,44.4,285.3,41.3,285.3,35.9z M294.4,35.7v-0.3c0-3.9-1.2-5.7-2.9-5.7s-2.9,1.8-2.9,5.7v0.3c0,3.9,1.3,5.7,2.9,5.7
			C293.2,41.4,294.4,39.6,294.4,35.7z"/>
		<path class="st0" d="M300.5,27h3l4.9,9.4V27h3.2v17.2h-2.8l-5.1-9.8v9.8h-3.2V27z"/>
	</g>
	<g>
		<g>
			<polygon class="st0" points="27.3,34.2 17.5,34.2 17.5,19.5 27.3,19.5 27.3,17.1 15.2,17.1 15.2,53.6 17.5,53.6 17.5,36.5 
				27.3,36.5 			"/>
			<path class="st0" d="M41.2,36.1l-1-0.8l1-0.8c2.5-1.9,3.9-4.7,3.9-7.7c0-5.3-4.3-9.7-9.6-9.7h-5.4v2.3h5.4c4,0,7.3,3.3,7.3,7.4
				s-3.3,7.4-7.3,7.4h-5.4v2.3h5.4c4,0,7.3,3.3,7.3,7.4s-3.3,7.4-7.3,7.4H20.3v2.3h15.2c5.3,0,9.6-4.3,9.6-9.7
				C45.1,40.8,43.7,38,41.2,36.1z"/>
		</g>
		<g>
			<path class="st0" d="M35.5,58.8H10V11.9h25.5c8.2,0,14.9,6.7,14.9,14.9c0,3-0.9,6-2.7,8.5c1.7,2.5,2.7,5.5,2.7,8.5
				C50.3,52.1,43.7,58.8,35.5,58.8z M11.9,56.9h23.6c7.2,0,13-5.8,13-13c0-2.8-1-5.7-2.7-8l-0.4-0.6l0.4-0.6c1.7-2.3,2.7-5.1,2.7-8
				c0-7.2-5.8-13-13-13H11.9V56.9z M35.5,47.9H20.8v-8.1h14.6c2.2,0,4,1.8,4,4C39.5,46.1,37.7,47.9,35.5,47.9z M22.7,46h12.7
				c1.2,0,2.1-1,2.1-2.1c0-1.2-1-2.1-2.1-2.1H22.7V46z M35.5,30.9H20.8v-8.1h14.6c2.2,0,4,1.8,4,4S37.7,30.9,35.5,30.9z M22.7,29
				h12.7c1.2,0,2.1-1,2.1-2.1s-1-2.1-2.1-2.1H22.7V29z"/>
		</g>
	</g>
</g>
</svg>
